<svg width="160" height="160" viewBox="0 0 160 160" fill="none" xmlns="http://www.w3.org/2000/svg">
<rect width="160" height="160" fill="#151515"/>
<path d="M27.568 87.924V62.591H37.613V85.67C37.613 86.552 38.2173 86.993 39.426 86.993L38.691 94.49H34.673C29.9363 94.49 27.568 92.3013 27.568 87.924ZM54.4755 94H44.2835V71.019H54.4755V94ZM44.0875 66.07C44.0875 63.2933 45.8352 61.905 49.3305 61.905C52.8258 61.905 54.5735 63.2933 54.5735 66.07C54.5735 67.5073 54.1325 68.5363 53.2505 69.157C52.4012 69.7777 51.0945 70.088 49.3305 70.088C47.5665 70.088 46.2435 69.794 45.3615 69.206C44.5122 68.5853 44.0875 67.54 44.0875 66.07ZM76.3919 69.941C80.9652 69.941 83.2519 72.1623 83.2519 76.605V94H72.9129V78.81C72.9129 78.2873 72.6352 78.026 72.0799 78.026C71.5572 78.026 70.9692 78.1893 70.3159 78.516V94H60.1239V70.529H69.3849L69.6789 72.048C71.7369 70.6433 73.9746 69.941 76.3919 69.941ZM112.761 94H101.736L98.894 86.307H98.698V94H88.653V62.591H98.698V78.761H98.894L102.324 70.529H112.957L107.469 82.73C108.09 84.0693 108.988 86.013 110.164 88.561C111.373 91.0763 112.238 92.8893 112.761 94ZM126.465 80.868V94H116.371V70.529H125.093L125.387 72.097H125.583C126.367 71.3783 127.265 70.8883 128.278 70.627C129.291 70.333 130.777 70.186 132.737 70.186L132.443 78.32H129.111C128.131 78.32 127.445 78.4997 127.053 78.859C126.661 79.2183 126.465 79.888 126.465 80.868Z" fill="white"/>
</svg>
